<?xml version="1.0" encoding="utf-8"?>
<!-- Generator: Adobe Illustrator 24.3.0, SVG Export Plug-In . SVG Version: 6.00 Build 0)  -->
<svg version="1.1" id="Layer_1" xmlns="http://www.w3.org/2000/svg" xmlns:xlink="http://www.w3.org/1999/xlink" x="0px" y="0px"
	 viewBox="0 0 188 144" style="enable-background:new 0 0 188 144;" xml:space="preserve">
<style type="text/css">
	.st0{fill:none;}
	.st1{enable-background:new    ;}
	.st2{fill:#BA2ADE;}
	.st3{stroke:#000000;stroke-miterlimit:10;}
	.st4{fill:#7D7D7D;}
	.st5{fill:#26FF2A;stroke:#FFFFFF;stroke-miterlimit:10;}
	.st6{fill:#F037FF;stroke:#FFFFFF;stroke-miterlimit:10;}
	.st7{fill:#3211FF;stroke:#3211FF;stroke-miterlimit:10;}
	.st8{fill:#5700DF;stroke:#3211FF;stroke-miterlimit:10;}
	.st9{fill:#F40006;stroke:#FFFFFF;stroke-miterlimit:10;}
</style>
<rect x="4" y="14.2" class="st0" width="179" height="36.8"/>
<g class="st1">
	<path class="st2" d="M16.2,14.2h4.9c0.4,0,0.8,0.1,1,0.4s0.4,0.6,0.4,1c0,0.4-0.2,0.8-0.5,1.1c-0.3,0.3-0.6,0.4-1,0.4h-4.7
		c-0.5,0-0.9,0.2-1.2,0.6l-4.1,5.3c-0.4,0.4-0.5,1-0.5,1.8v8.2c0,0.4,0.1,0.8,0.4,1.1s0.6,0.4,1,0.4h6c0.4,0,0.7-0.1,1-0.4
		s0.4-0.6,0.4-1V30h-3.1c-0.4,0-0.8-0.1-1.1-0.4s-0.4-0.6-0.4-1s0.1-0.8,0.4-1s0.6-0.4,1.1-0.4h6v6.2c0,1.2-0.4,2.3-1.3,3.1
		s-1.9,1.3-3.1,1.3h-6c-1.2,0-2.3-0.4-3.2-1.3s-1.3-1.9-1.3-3.1V25c0-1.5,0.4-2.7,1.2-3.7l4.4-5.5c0.3-0.4,0.8-0.8,1.3-1.1
		S15.6,14.2,16.2,14.2z"/>
	<path class="st2" d="M33.8,27h5.8c0.3,0,0.8,0.1,1.4,0.2l0-2.1c0-0.4-0.1-0.8-0.4-1s-0.6-0.4-1-0.4h-5.6c-0.4,0-0.7-0.1-1-0.4
		c-0.3-0.3-0.4-0.6-0.4-1c0-0.4,0.1-0.8,0.4-1s0.6-0.4,1-0.4h5.6c1.2,0,2.3,0.4,3.1,1.3c0.9,0.9,1.3,1.9,1.3,3.1l0.4,11.1
		c0,0.4-0.1,0.8-0.4,1s-0.6,0.4-1,0.4c-0.4,0-0.8-0.1-1.1-0.4s-0.4-0.6-0.4-1l-2.5,1.5h-5c-1.2,0-2.3-0.4-3.2-1.3s-1.3-1.9-1.3-3.2
		v-1.7c0-1.2,0.4-2.3,1.3-3.2C31.5,27.4,32.6,27,33.8,27z M41.2,32.7l-0.1-1.2c0-0.4-0.2-0.8-0.4-1.1c-0.3-0.3-0.6-0.4-1-0.4h-5.8
		c-0.4,0-0.8,0.1-1,0.4c-0.3,0.3-0.4,0.6-0.4,1v1.7c0,0.4,0.1,0.7,0.4,1c0.3,0.3,0.6,0.4,1,0.4H38L41.2,32.7z"/>
	<path class="st2" d="M50.8,36.1v-14c0-0.4,0.1-0.8,0.4-1s0.6-0.4,1-0.4c0.8,0,1.2,0.4,1.4,1.1c0.8-0.8,1.7-1.2,2.7-1.2
		c1.2,0,2.2,0.5,2.9,1.5c0.9-1,2-1.5,3.1-1.5c0.9,0,1.7,0.3,2.4,1s1,1.5,1.1,2.5l0.4,12.1c0,0.4-0.1,0.7-0.4,1s-0.6,0.4-1,0.4
		c-0.4,0-0.8-0.1-1.1-0.4s-0.4-0.6-0.5-1L63,24.5c0-0.6-0.2-0.9-0.6-0.9c-0.2,0-0.4,0.1-0.6,0.3L60,25.3v10.8c0,0.4-0.1,0.7-0.4,1
		s-0.6,0.4-1,0.4c-0.4,0-0.7-0.1-1-0.4s-0.4-0.6-0.4-1V24.4c0-0.5-0.2-0.8-0.6-0.8c-0.2,0-0.4,0.1-0.6,0.2l-2.1,1.8v10.5
		c0,0.4-0.1,0.7-0.4,1s-0.6,0.4-1,0.4c-0.4,0-0.8-0.1-1.1-0.4S50.8,36.5,50.8,36.1z"/>
	<path class="st2" d="M87.8,26.2v3.6c0,0.4-0.1,0.7-0.4,1s-0.6,0.4-1,0.4H75.9v0.9c0,0.5,0.2,0.9,0.7,1.3l0.9,0.7
		c0.5,0.4,0.9,0.5,1.3,0.5h7.6c0.4,0,0.7,0.1,1,0.4s0.4,0.6,0.4,1c0,0.4-0.1,0.7-0.4,1s-0.6,0.4-1,0.4h-7.8c-0.5,0-1.1-0.1-1.6-0.3
		s-1-0.4-1.3-0.7l-1.3-1.2c-0.4-0.3-0.8-0.8-1-1.4s-0.4-1.1-0.4-1.6v-6.8c0-0.4,0.1-0.9,0.4-1.6s0.7-1.2,1.1-1.5l1.2-1
		c0.8-0.7,1.7-1,2.7-1h4.1c1,0,2,0.4,3,1.3l1.1,1.1C87.4,23.7,87.8,24.8,87.8,26.2z M75.9,26v2.3h9v-2.1c0-0.6-0.2-1-0.5-1.3
		l-0.9-0.8c-0.4-0.4-0.8-0.5-1.2-0.5h-3.7c-0.5,0-0.9,0.2-1.2,0.5l-0.9,0.7C76.1,25.1,75.9,25.5,75.9,26z"/>
	<path class="st2" d="M102.7,34.7h5.3c0.4,0,0.8,0.1,1.1,0.4s0.4,0.6,0.4,1s-0.1,0.8-0.4,1s-0.7,0.4-1.1,0.4h-5.5
		c-0.7,0-1.4-0.2-2.2-0.7s-1.3-0.9-1.6-1.5l-3.4-6.6c-0.5-0.9-0.7-1.9-0.7-2.9c0-1.1,0.2-2.1,0.7-2.9l3.4-6.5
		c0.3-0.6,0.8-1.1,1.5-1.6s1.4-0.7,2-0.7h5.8c0.4,0,0.8,0.1,1,0.4s0.4,0.6,0.4,1c0,0.4-0.1,0.8-0.4,1.1s-0.6,0.4-1,0.4h-5.6
		c-0.5,0-0.8,0.3-1.1,0.8l-3.3,6.1c-0.3,0.5-0.4,1-0.4,1.7c0,0.7,0.1,1.3,0.4,1.8l3.1,6C101.6,34.3,102.1,34.7,102.7,34.7z"/>
	<path class="st2" d="M131.3,26v6.2c0,1.3-0.6,2.5-1.9,3.7s-2.5,1.7-3.9,1.7h-3.5c-1.3,0-2.6-0.6-3.9-1.7s-1.8-2.4-1.8-3.6V26
		c0-1.3,0.6-2.5,1.8-3.6s2.5-1.7,3.9-1.7h3.5c1.3,0,2.6,0.5,3.9,1.7S131.3,24.6,131.3,26z M119.3,26.1v6c0,0.5,0.2,1,0.6,1.3
		l1.1,0.9c0.2,0.2,0.6,0.3,1,0.3h3.4c0.5,0,1-0.2,1.4-0.5l0.9-0.8c0.4-0.3,0.5-0.7,0.5-1.2v-6c0-0.6-0.2-1-0.5-1.3l-1-0.8
		c-0.4-0.3-0.8-0.4-1.2-0.4h-3.1c-0.7,0-1.2,0.2-1.5,0.5l-1,0.9C119.5,25.2,119.3,25.6,119.3,26.1z"/>
	<path class="st2" d="M150,22.7v-7c0-0.4,0.1-0.8,0.4-1s0.6-0.4,1-0.4c0.4,0,0.8,0.1,1.1,0.4s0.4,0.6,0.4,1v20.4
		c0,0.4-0.1,0.8-0.4,1s-0.6,0.4-1,0.4c-0.4,0-0.8-0.1-1.1-0.4s-0.4-0.6-0.4-1v-0.7c-1.4,1.4-2.8,2.1-4,2.1h-2.5c-1,0-2-0.4-3-1.3
		l-1.2-1c-0.3-0.3-0.5-0.7-0.8-1.4s-0.4-1.2-0.4-1.8v-6c0-0.7,0.1-1.3,0.4-1.9s0.6-1.1,1-1.4l1.2-1c0.9-0.8,1.9-1.1,3.1-1.1h2.1
		c1.2,0,2.2,0.4,3.2,1.2L150,22.7z M145.7,23.6h-2.1c-0.4,0-0.8,0.2-1.2,0.5l-0.9,0.8c-0.3,0.3-0.5,0.7-0.5,1.1v6.3
		c0,0.4,0.2,0.8,0.6,1.1l1,0.8c0.3,0.3,0.6,0.4,1,0.4h2.4c0.3,0,0.7-0.2,1.1-0.5l2.3-1.9c0.4-0.3,0.6-0.8,0.6-1.3v-3.2
		c0-0.7-0.2-1.2-0.6-1.6L147,24C146.7,23.7,146.3,23.6,145.7,23.6z"/>
	<path class="st2" d="M174.8,26.2v3.6c0,0.4-0.1,0.7-0.4,1s-0.6,0.4-1,0.4h-10.4v0.9c0,0.5,0.2,0.9,0.7,1.3l0.9,0.7
		c0.5,0.4,0.9,0.5,1.3,0.5h7.6c0.4,0,0.7,0.1,1,0.4s0.4,0.6,0.4,1c0,0.4-0.1,0.7-0.4,1s-0.6,0.4-1,0.4h-7.8c-0.5,0-1.1-0.1-1.6-0.3
		s-1-0.4-1.3-0.7l-1.3-1.2c-0.4-0.3-0.8-0.8-1-1.4s-0.4-1.1-0.4-1.6v-6.8c0-0.4,0.1-0.9,0.4-1.6s0.7-1.2,1.1-1.5l1.2-1
		c0.8-0.7,1.7-1,2.7-1h4.1c1,0,2,0.4,3,1.3l1.1,1.1C174.4,23.7,174.8,24.8,174.8,26.2z M162.9,26v2.3h9v-2.1c0-0.6-0.2-1-0.5-1.3
		l-0.9-0.8c-0.4-0.4-0.8-0.5-1.2-0.5h-3.7c-0.5,0-0.9,0.2-1.2,0.5l-0.9,0.7C163.1,25.1,162.9,25.5,162.9,26z"/>
</g>
<circle class="st3" cx="53.6" cy="74.4" r="20"/>
<circle cx="138.4" cy="97.6" r="20"/>
<rect x="64.1" y="72.4" transform="matrix(0.9645 0.2642 -0.2642 0.9645 25.8261 -22.7947)" width="67.1" height="24.5"/>
<path class="st4" d="M50.3,72.6l-4.2-4.3c-0.5-0.5-1.3-0.3-1.5,0.4L43,74.5c-0.2,0.7,0.4,1.3,1.1,1.1l5.8-1.5
	C50.6,73.9,50.8,73.1,50.3,72.6z"/>
<path class="st4" d="M88,81.1l-6-3.6c-0.5-0.3-1.2,0-1.3,0.5l-1,3.6c-0.2,0.6,0.3,1.1,0.9,1.1l7,0C88.5,82.7,88.8,81.5,88,81.1z"/>
<path class="st4" d="M51.4,78.3l-3.5,3.5c-0.7,0.7-0.4,1.8,0.5,2l4.8,1.3c0.9,0.2,1.7-0.6,1.5-1.5l-1.2-4.8
	C53.2,78,52.1,77.7,51.4,78.3z"/>
<path class="st4" d="M57.8,76.7L61,80c0.7,0.7,1.9,0.4,2.2-0.6l1.2-4.4c0.3-1-0.6-1.9-1.6-1.6l-4.4,1.2C57.4,74.8,57.1,76,57.8,76.7
	z"/>
<path class="st4" d="M55.1,71.6l4.3-4.3c0.5-0.5,0.3-1.3-0.4-1.5l-5.9-1.6c-0.7-0.2-1.2,0.4-1.1,1.1l1.5,5.9
	C53.8,71.9,54.6,72.1,55.1,71.6z"/>
<circle class="st4" cx="129.5" cy="95.2" r="4.4"/>
<circle class="st4" cx="143" cy="87.6" r="4.8"/>
<circle class="st4" cx="150.9" cy="101.2" r="4.4"/>
<circle class="st4" cx="137.7" cy="106.9" r="4.8"/>
<polygon class="st5" points="144,84 139.4,88.4 145.7,90.2 "/>
<rect x="126.9" y="92.5" transform="matrix(0.2642 -0.9645 0.9645 0.2642 3.5871 194.988)" class="st6" width="5.3" height="5.3"/>
<line class="st7" x1="136.1" y1="103.2" x2="139.6" y2="110.6"/>
<line class="st8" x1="134.3" y1="108.8" x2="140.5" y2="104.5"/>
<circle class="st9" cx="150.9" cy="101.2" r="3"/>
<rect x="102.9" y="85.3" transform="matrix(0.9645 0.2642 -0.2642 0.9645 26.9822 -25.521)" class="st4" width="10.9" height="4.4"/>
</svg>
